#!OML:ASF H:\GeneralSubjects\Female5\Project 1\Capture day 1\Session 1\Female5.ASF
:FULLY-SPECIFIED
:DEGREES
729
root 27.7498 15.6763 -9.92503 -230.268 -82.0556 -118.855
lowerback 15.3636 -0.676836 -5.60154
upperback -13.9329 -1.32843 10.8916
thorax -25.905 2.04152 17.9849
lowerneck -5.05944 7.0925 1.26078
upperneck 40.8599 12.8396 -13.8429
head 16.9601 2.74131 -4.89185
rclavicle 7.99114e-014 -7.4743e-014
rhumerus -62.9264 40.8758 -88.6985
rradius 44.3415
rwrist -15.7225
rhand -24.9822 -22.2763
rfingers 7.12502
rthumb 1.52873 -52.2506
lclavicle 7.99114e-014 -7.4743e-014
lhumerus -73.9917 17.5012 69.0199
lradius 33.9994
lwrist -5.1113
lhand -24.5978 27.1252
lfingers 7.12502
lthumb 1.90005 57.0965
rfemur 6.47727 10.4514 40.1809
rtibia -4.56491
rfoot -23.2969 -14.0942
rtoes -21.4769
lfemur -45.3346 -36.1939 1.27248
ltibia 3.67371
lfoot -40.0359 -1.23856
ltoes -25.2456
730
root 27.571 15.6373 -9.96039 -230.439 -81.8542 -118.635
lowerback 15.2395 -0.618005 -5.55963
upperback -13.9289 -1.23289 10.8774
thorax -25.8398 2.05813 17.8855
lowerneck -5.15584 7.10219 1.22882
upperneck 40.87 12.8423 -13.7247
head 16.9721 2.75224 -4.82568
rclavicle 1.98785e-014 -2.70347e-014
rhumerus -63.0292 41.0403 -89.6364
rradius 44.2778
rwrist -15.5513
rhand -25.103 -23.8402
rfingers 7.12502
rthumb 1.41213 -53.8152
lclavicle 1.98785e-014 -2.70347e-014
lhumerus -74.2 17.5218 68.5232
lradius 34.3221
lwrist -4.67485
lhand -24.4999 26.7884
lfingers 7.12502
lthumb 1.9946 56.7588
rfemur 7.25999 11.2864 40.8519
rtibia -4.61402
rfoot -23.2081 -14.7402
rtoes -19.6888
lfemur -45.5981 -34.7405 1.07047
ltibia 4.9204
lfoot -36.6924 -3.56787
ltoes -26.1802
731
root 27.3824 15.5974 -9.98874 -231.288 -81.7652 -117.723
lowerback 15.0921 -0.610422 -5.4098
upperback -13.9507 -1.18669 10.8168
thorax -25.7665 2.02276 17.6655
lowerneck -4.97205 7.11173 1.11405
upperneck 40.624 12.7883 -13.5118
head 16.7348 2.77154 -4.684
rclavicle 3.57812e-015 -3.18055e-014
rhumerus -63.1135 41.1128 -90.4826
rradius 44.0893
rwrist -15.3875
rhand -25.6144 -23.3313
rfingers 7.12502
rthumb 0.918121 -53.3091
lclavicle 3.57812e-015 -3.18055e-014
lhumerus -74.3387 17.5245 67.9638
lradius 34.5934
lwrist -4.37529
lhand -21.7527 48.0263
lfingers 7.12502
lthumb 4.64759 77.9553
rfemur 8.2161 12.17 41.5152
rtibia -4.82863
rfoot -23.5957 -15.1053
rtoes -16.3623
lfemur -45.3336 -32.0468 -0.91412
ltibia 6.87358
lfoot -32.82 -4.65188
ltoes -25.5829
732
root 27.1839 15.5545 -10.0175 -232.857 -81.7306 -116.169
lowerback 15.3144 -0.615936 -5.0729
upperback -14.086 -1.12763 10.6439
thorax -26.1487 2.00291 17.2434
lowerneck -5.14122 7.12001 1.15337
upperneck 40.7705 12.719 -13.1569
head 16.807 2.78364 -4.54026
rclavicle 1.94809e-014 0
rhumerus -63.7243 41.0017 -91.5977
rradius 44.1919
rwrist -15.2903
rhand -26.3116 -22.6435
rfingers 7.12502
rthumb 0.244784 -52.6231
lclavicle 1.94809e-014 0
lhumerus -74.6674 17.2385 67.4059
lradius 34.9072
lwrist -3.96576
lhand -26.6765 39.102
lfingers 7.12502
lthumb -0.107624 69.0817
rfemur 9.32543 13.324 42.3309
rtibia -4.98665
rfoot -24.6779 -15.6403
rtoes -13.5341
lfemur -44.8726 -29.0813 -3.51579
ltibia 9.42241
lfoot -29.3639 -5.20566
ltoes -25.0285
733
root 26.9716 15.511 -10.0468 -234.872 -81.6995 -114.231
lowerback 15.235 -0.600556 -4.88874
upperback -14.1385 -1.06135 10.5888
thorax -26.1843 1.98641 17.0227
lowerneck -5.23588 7.0419 0.982418
upperneck 40.8425 12.5232 -12.7504
head 16.7778 2.72703 -4.34642
rclavicle -2.42517e-014 1.27222e-014
rhumerus -64.0507 40.8565 -92.2833
rradius 44.2034
rwrist -15.1638
rhand -26.5771 -23.2584
rfingers 7.12502
rthumb -0.011667 -53.2381
lclavicle -2.42517e-014 1.27222e-014
lhumerus -74.8702 17.1573 67.0479
lradius 35.2004
lwrist -3.72235
lhand -27.6736 35.4051
lfingers 7.12502
lthumb -1.07066 65.3822
rfemur 10.5987 14.8498 43.3757
rtibia -5.17814
rfoot -25.571 -17.5194
rtoes -13.4163
lfemur -44.3903 -26.2631 -6.10376
ltibia 12.4191
lfoot -26.3323 -5.4154
ltoes -25.6497
734
root 26.7465 15.4713 -10.0701 -237.005 -81.7428 -112.189
lowerback 14.9234 -0.584267 -4.86388
upperback -14.1017 -1.02288 10.6106
thorax -25.8984 1.95956 16.9681
lowerneck -5.27293 6.90097 0.783485
upperneck 40.8284 12.3164 -12.6318
head 16.7209 2.63019 -4.28128
rclavicle 3.97569e-016 -1.36764e-013
rhumerus -64.2176 40.8205 -92.7499
rradius 44.1269
rwrist -15.0341
rhand -26.8718 -23.4409
rfingers 7.12502
rthumb -0.296271 -53.4205
lclavicle 3.97569e-016 -1.36764e-013
lhumerus -74.7726 17.3373 66.8216
lradius 35.2734
lwrist -3.72945
lhand -27.1798 34.775
lfingers 7.12502
lthumb -0.593734 64.7539
rfemur 11.9944 16.374 44.4309
rtibia -5.38492
rfoot -26.1418 -19.8981
rtoes -13.1987
lfemur -43.8772 -23.805 -8.55478
ltibia 15.3498
lfoot -23.9799 -4.70683
ltoes -25.959
